<svg width="59" height="55" viewBox="0 0 59 55" fill="none" xmlns="http://www.w3.org/2000/svg">
<line x1="33.5562" y1="17.4284" x2="46.7893" y2="4.19535" stroke="#A0AEC0"/>
<line x1="14.1201" y1="50.5112" x2="27.3532" y2="37.2781" stroke="#A0AEC0"/>
<line x1="9.86491" y1="16.6013" x2="20.6168" y2="27.3532" stroke="#A0AEC0"/>
<line x1="43.361" y1="36.0373" x2="54.1129" y2="46.7892" stroke="#A0AEC0"/>
<line x1="40.5264" y1="26.7932" x2="52.5188" y2="26.7932" stroke="#A0AEC0"/>
<rect x="50.8646" y="22.7444" width="7.4436" height="7.4436" fill="#ECC94B"/>
<rect x="44.248" width="6.61654" height="6.61654" fill="#ECC94B"/>
<rect x="9.51135" y="48.3835" width="6.61654" height="6.61654" fill="#ECC94B"/>
<rect x="51.6918" y="43.8345" width="6.61654" height="6.61654" fill="#ECC94B"/>
<rect y="6.61646" width="10.7519" height="10.7519" fill="#ECC94B"/>
<path fill-rule="evenodd" clip-rule="evenodd" d="M20.9657 31.3045C16.3283 32.2956 13.233 34.0832 13.233 36.1238C13.233 39.2405 20.4537 41.767 29.3608 41.767C38.268 41.767 45.4886 39.2405 45.4886 36.1238C45.4886 34.0832 42.3933 32.2956 37.756 31.3045C35.3845 31.8011 32.4879 32.093 29.3608 32.093C26.2337 32.093 23.3371 31.8011 20.9657 31.3045Z" fill="#E2E8F0"/>
<ellipse cx="29.1541" cy="19.0226" rx="9.71804" ry="3.30827" fill="#E2E8F0"/>
<path fill-rule="evenodd" clip-rule="evenodd" d="M23.171 22.9402C19.1406 23.6691 16.4058 25.0877 16.4058 26.7182C16.4058 29.0928 22.206 31.0178 29.3609 31.0178C36.5158 31.0178 42.3161 29.0928 42.3161 26.7182C42.3161 25.0489 39.4495 23.6017 35.261 22.8894C33.5255 23.2696 31.3968 23.4936 29.0966 23.4936C26.9008 23.4936 24.8614 23.2895 23.171 22.9402Z" fill="#E2E8F0"/>
</svg>
