<svg width="60" height="61" viewBox="0 0 60 61" fill="none" xmlns="http://www.w3.org/2000/svg">
<circle cx="30" cy="30.5" r="30" fill="#F49AA9"/>
<g clip-path="url(#clip0_8_777)">
<path d="M18 32C20.6746 32.3179 23.1646 33.5263 25.0691 35.4309C26.9737 37.3354 28.1821 39.8254 28.5 42.5C29.8259 41.7356 30.9349 40.6457 31.7223 39.3334C32.5097 38.0211 32.9495 36.5296 33 35C35.5187 34.114 37.718 32.501 39.32 30.365C40.922 28.229 41.8546 25.666 42 23C42 21.8065 41.5259 20.6619 40.682 19.818C39.8381 18.9741 38.6935 18.5 37.5 18.5C34.834 18.6454 32.271 19.578 30.135 21.18C27.999 22.782 26.386 24.9813 25.5 27.5C23.9704 27.5505 22.4789 27.9903 21.1666 28.7777C19.8543 29.5651 18.7644 30.6741 18 32Z" stroke="#2C3E50" stroke-width="2.25" stroke-linecap="round" stroke-linejoin="round"/>
<path d="M22.5002 33.5C20.9391 34.3814 19.6767 35.7089 18.875 37.3124C18.0732 38.9159 17.7686 40.7223 18.0002 42.5C19.778 42.7316 21.5844 42.427 23.1879 41.6253C24.7914 40.8235 26.1189 39.5612 27.0002 38" stroke="#2C3E50" stroke-width="2.25" stroke-linecap="round" stroke-linejoin="round"/>
<path d="M34.5 27.5C35.3284 27.5 36 26.8284 36 26C36 25.1716 35.3284 24.5 34.5 24.5C33.6716 24.5 33 25.1716 33 26C33 26.8284 33.6716 27.5 34.5 27.5Z" stroke="#2C3E50" stroke-width="2.25" stroke-linecap="round" stroke-linejoin="round"/>
</g>
<defs>
<clipPath id="clip0_8_777">
<rect width="36" height="36" fill="white" transform="translate(12 12.5)"/>
</clipPath>
</defs>
</svg>
