<?xml version="1.0" standalone="no"?><!DOCTYPE svg PUBLIC "-//W3C//DTD SVG 1.1//EN" "http://www.w3.org/Graphics/SVG/1.1/DTD/svg11.dtd"><svg xmlns:xlink="http://www.w3.org/1999/xlink" version="1.1" class="highcharts-root" style="font-family: Roboto; font-size: 12px;" xmlns="http://www.w3.org/2000/svg" width="400" height="200" viewBox="0 0 400 200" aria-label="Interactive chart" aria-hidden="false"><desc aria-hidden="true">Created with Highcharts 10.3.1</desc><defs aria-hidden="true"><clipPath id="highcharts-j3xvr3b-190-"><rect x="0" y="0" width="400" height="200" fill="none"></rect></clipPath></defs><rect fill="#ffffff" class="highcharts-background" x="0" y="0" width="400" height="200" rx="0" ry="0" aria-hidden="true"></rect><g stroke-linejoin="round" class="highcharts-3d-frame highcharts-3d-frame-bottom" data-z-index="-1000" aria-hidden="true"><path fill="none" d="M 43.900759886853706 147.55900696878382 L 355.28196660470053 147.55900696878382 L 351.0736077345509 88.90139837377485 L 48.13126801421461 88.90139837377485 Z" visibility="hidden"></path><path fill="none" d="M 48.84527335684993 88.90698340015133 L 351.15472664315007 88.90698340015133 L 355.3248060277285 147 L 44.67519397227147 147 Z"></path><path fill="none" d="M 43.900759886853706 147.55900696878382 L 48.13126801421461 88.90139837377485 L 48.84527335684993 88.90698340015133 L 44.67519397227147 147 Z" visibility="hidden"></path><path fill="none" d="M 351.0736077345509 88.90139837377485 L 355.28196660470053 147.55900696878382 L 355.3248060277285 147 L 351.15472664315007 88.90698340015133 Z" visibility="hidden"></path><path fill="none" d="M 355.28196660470053 147.55900696878382 L 43.900759886853706 147.55900696878382 L 44.67519397227147 147 L 355.3248060277285 147 Z"></path><path fill="none" d="M 48.13126801421461 88.90139837377485 L 351.0736077345509 88.90139837377485 L 351.15472664315007 88.90698340015133 L 48.84527335684993 88.90698340015133 Z" visibility="hidden"></path></g><g stroke-linejoin="round" class="highcharts-3d-frame highcharts-3d-frame-left" data-z-index="-1000" aria-hidden="true"><path fill="none" d="M 43.900759886853706 147.55900696878382 L 44.67519397227147 147 L 48.84527335684993 88.90698340015133 L 48.13126801421461 88.90139837377485 Z" visibility="hidden"></path><path fill="none" d="M 42.291374836200106 8.72899383539702 L 43.07334699337193 9.293567326039167 L 38.57397356665325 67.38583893634821 L 37.72436290121459 67.38583893634821 Z"></path><path fill="none" d="M 48.13126801421461 88.90139837377485 L 42.291374836200106 8.72899383539702 L 37.72436290121459 67.38583893634821 L 43.900759886853706 147.55900696878382 Z" visibility="hidden"></path><path fill="none" d="M 43.07334699337193 9.293567326039167 L 48.84527335684993 88.90698340015133 L 44.67519397227147 147 L 38.57397356665325 67.38583893634821 Z"></path><path fill="none" d="M 43.900759886853706 147.55900696878382 L 37.72436290121459 67.38583893634821 L 38.57397356665325 67.38583893634821 L 44.67519397227147 147 Z"></path><path fill="none" d="M 42.291374836200106 8.72899383539702 L 48.13126801421461 88.90139837377485 L 48.84527335684993 88.90698340015133 L 43.07334699337193 9.293567326039167 Z" visibility="hidden"></path></g><g stroke-linejoin="round" class="highcharts-3d-frame highcharts-3d-frame-right" data-z-index="-1000" aria-hidden="true"><path fill="none" d="M 351.0736077345509 88.90139837377485 L 351.15472664315007 88.90698340015133 L 355.3248060277285 147 L 355.28196660470053 147.55900696878382 Z" visibility="hidden"></path><path fill="none" d="M 361.42602643334675 67.38583893634821 L 361.42602643334675 67.38583893634821 L 356.92665300662804 9.293567326039167 L 356.8829255556125 8.72899383539702 Z" visibility="hidden"></path><path fill="none" d="M 361.42602643334675 67.38583893634821 L 355.3248060277285 147 L 351.15472664315007 88.90698340015133 L 356.92665300662804 9.293567326039167 Z" visibility="hidden"></path><path fill="none" d="M 355.28196660470053 147.55900696878382 L 361.42602643334675 67.38583893634821 L 356.8829255556125 8.72899383539702 L 351.0736077345509 88.90139837377485 Z" visibility="hidden"></path><path fill="none" d="M 361.42602643334675 67.38583893634821 L 355.28196660470053 147.55900696878382 L 355.3248060277285 147 L 361.42602643334675 67.38583893634821 Z" visibility="hidden"></path><path fill="none" d="M 351.0736077345509 88.90139837377485 L 356.8829255556125 8.72899383539702 L 356.92665300662804 9.293567326039167 L 351.15472664315007 88.90698340015133 Z" visibility="hidden"></path></g><g stroke-linejoin="round" class="highcharts-3d-frame highcharts-3d-frame-back" data-z-index="-1000" aria-hidden="true"><path fill="none" d="M 351.0736077345509 88.90139837377485 L 48.13126801421461 88.90139837377485 L 48.84527335684993 88.90698340015133 L 351.15472664315007 88.90698340015133 Z" visibility="hidden"></path><path fill="none" d="M 42.291374836200106 8.72899383539702 L 356.8829255556125 8.72899383539702 L 356.92665300662804 9.293567326039167 L 43.07334699337193 9.293567326039167 Z"></path><path fill="none" d="M 48.13126801421461 88.90139837377485 L 42.291374836200106 8.72899383539702 L 43.07334699337193 9.293567326039167 L 48.84527335684993 88.90698340015133 Z" visibility="hidden"></path><path fill="none" d="M 356.8829255556125 8.72899383539702 L 351.0736077345509 88.90139837377485 L 351.15472664315007 88.90698340015133 L 356.92665300662804 9.293567326039167 Z" visibility="hidden"></path><path fill="none" d="M 43.07334699337193 9.293567326039167 L 356.92665300662804 9.293567326039167 L 351.15472664315007 88.90698340015133 L 48.84527335684993 88.90698340015133 Z"></path><path fill="none" d="M 48.13126801421461 88.90139837377485 L 351.0736077345509 88.90139837377485 L 356.8829255556125 8.72899383539702 L 42.291374836200106 8.72899383539702 Z" visibility="hidden"></path></g><rect fill="none" class="highcharts-plot-background" x="10" y="10" width="380" height="137" aria-hidden="true"></rect><g class="highcharts-pane-group" data-z-index="0" aria-hidden="true"></g><rect fill="none" class="highcharts-plot-border" data-z-index="1" x="10" y="10" width="380" height="137" aria-hidden="true"></rect><g class="highcharts-series-group" data-z-index="3" aria-hidden="false"><g class="highcharts-series highcharts-series-0 highcharts-pie-series" data-z-index="0.1" opacity="1" transform="translate(10,10) scale(1 1)" clip-path="none" aria-hidden="false"><path fill="rgb(229,188,26)" d="M 217.83085078849112 104.88470657012877 L 217.83085078849112 128.74956043517474 L 195.56617015769822 99.64179517907172 L 195.56617015769822 75.77694131402575 Z" data-z-index="20.163647305236008" class="highcharts-point highcharts-color-0" transform="translate(0,0)" opacity="1"></path><path fill="rgb(33,85,230)" d="M 154.06850768176773 35.85664033999552 L 154.06850768176773 59.721494205041495 L 182.81370153635353 85.83618193304508 L 182.81370153635353 61.9713280679991 Z" data-z-index="39.49905808426557" class="highcharts-point highcharts-color-3" transform="translate(0,0)" opacity="1"></path><path fill="rgb(33,85,230)" d="M 189.9766596481149 27.134256592997303 L 189.9766596481149 50.999110458043276 L 189.99533192962298 84.09170518364543 L 189.99533192962298 60.22685131859946 Z" data-z-index="65477.50905808426" class="highcharts-point highcharts-color-3" transform="translate(0,0)" opacity="1"></path><path fill="rgb(214,18,60)" d="M 131.69941683338226 71.91262380231763 L 131.69941683338226 95.7774776673636 L 178.33988336667645 93.0473786255095 L 178.33988336667645 69.18252476046352 Z" data-z-index="65478.49905808423" class="highcharts-point highcharts-color-2" transform="translate(0,0)" opacity="1"></path><path fill="rgb(33,85,230)" d="M 154.06850768176773 35.85664033999552 C 164.79722768522643 29.95193377173954 176.38120000881779 27.138092167870198 189.9766596481149 27.134256592997303 L 189.9766596481149 50.999110458043276 C 176.38120000881779 51.00294603291617 164.79722768522643 53.81678763678552 154.06850768176773 59.721494205041495 Z" data-z-index="66138.89803846895" class="highcharts-point highcharts-color-3" transform="translate(0,0)" opacity="1"></path><path fill="rgb(33,85,230)" d="M 182.81370153635353 61.9713280679991 C 184.95944553704527 60.79038675434791 187.27624000176357 60.22761843357404 189.99533192962298 60.22685131859946 L 189.99533192962298 84.09170518364543 C 187.27624000176357 84.09247229862001 184.95944553704527 84.65524061939388 182.81370153635353 85.83618193304508 Z" data-z-index="66138.89803846895" class="highcharts-point highcharts-color-3" transform="translate(0,0)" opacity="1"></path><path fill="rgb(214,18,60)" d="M 154.06804603674482 35.85689441564644 L 154.06804603674482 59.72174828069241 L 182.81360920734897 85.83623274817526 L 182.81360920734897 61.97137888312929 Z" data-z-index="163685.50905808428" class="highcharts-point highcharts-color-2" transform="translate(0,0)" opacity="1"></path><path fill="rgb(0,5,35)" d="M 217.83033622964464 104.88490336214272 L 217.83033622964464 128.7497572271887 L 195.56606724592893 99.64183453747452 L 195.56606724592893 75.77698067242855 Z" data-z-index="163686.4990580843" class="highcharts-point highcharts-color-1" transform="translate(0,0)" opacity="1"></path><path fill="rgb(214,18,60)" d="M 131.69941683338226 71.91262380231763 C 131.55926847751246 70.71549054791349 131.5 69.70122804230785 131.5 68.5 L 131.5 92.36485386504597 C 131.5 79.1385734801851 139.30746938405156 67.8456132019561 154.06804603674482 59.72174828069241 L 154.06804603674482 35.85689441564644 C 139.30746938405156 43.980759336910126 131.5 55.27371961513913 131.5 68.5 L 131.5 92.36485386504597 C 131.5 93.56608190735382 131.55926847751246 94.58034441295946 131.69941683338226 95.7774776673636 Z" data-z-index="165338.89803846896" class="highcharts-point highcharts-color-2" transform="translate(0,0)" opacity="1"></path><path fill="rgb(214,18,60)" d="M 178.33988336667645 69.18252476046352 C 178.003229290323 66.30685927347129 179.59337891054747 63.74371586982844 182.81360920734897 61.97137888312929 L 182.81360920734897 85.83623274817526 C 179.59337891054747 87.60856973487442 178.003229290323 90.17171313851726 178.33988336667645 93.0473786255095 Z" data-z-index="165338.89803846896" class="highcharts-point highcharts-color-2" transform="translate(0,0)" opacity="1"></path><path fill="rgb(229,188,26)" d="M 189.98808511758384 27.134254158569938 L 189.98808511758384 50.99910802361592 L 189.99761702351677 84.09170469675996 L 189.99761702351677 60.22685083171399 Z" data-z-index="261932.84635269473" class="highcharts-point highcharts-color-0" transform="translate(0,0)" opacity="1"></path><path fill="rgb(0,5,35)" d="M 131.69946509808597 71.91303604952402 L 131.69946509808597 95.77788991457 L 178.3398930196172 93.04746107495077 L 178.3398930196172 69.1826072099048 Z" data-z-index="261933.83635269478" class="highcharts-point highcharts-color-1" transform="translate(0,0)" opacity="1"></path><path fill="rgb(229,188,26)" d="M 248.5 68.5 C 248.5 84.13466091807588 237.27914309029114 97.44665673868221 217.83085078849112 104.88470657012877 L 217.83085078849112 128.74956043517474 C 237.27914309029114 121.31151060372818 248.5 107.99951478312185 248.5 92.36485386504597 Z" data-z-index="264578.6326794896" class="highcharts-point highcharts-color-0" transform="translate(0,0)" opacity="1"></path><path fill="rgb(229,188,26)" d="M 189.99761702351677 60.22685083171399 C 196.45934846251177 60.22592022151061 201.69868367575486 63.92918086244962 201.69999975732577 68.4983149811693 C 201.70090060140996 71.6258395447752 199.45656557301166 74.28904949740316 195.56617015769822 75.77694131402575 L 195.56617015769822 99.64179517907172 C 201.24981486324916 97.46807052046957 203.36525999194828 92.44792091444944 200.2911490988883 88.42897720129936 C 198.18695231247668 85.67805222163419 194.42060467802324 84.09106770379925 189.99761702351677 84.09170469675996 Z" data-z-index="264578.6326794896" class="highcharts-point highcharts-color-0" transform="translate(0,0)" opacity="1"></path><path fill="rgb(0,5,35)" d="M 217.83033622964464 104.88490336214272 C 189.41195899776625 115.75332570742441 153.9142464819195 108.27384672166197 138.54397619962333 88.17901947068337 C 134.50086868290552 82.89313017834229 132.40068254071397 77.90203695583831 131.69946509808597 71.91303604952402 L 131.69946509808597 95.77788991457 C 134.36521207000982 118.54566501586018 162.62826553680011 135.47452520176725 194.82676187010517 133.5895574409924 C 203.2964881768796 133.09372183222385 210.35495990321314 131.60866596932618 217.83033622964464 128.7497572271887 Z" data-z-index="264579.6326794897" class="highcharts-point highcharts-color-1" transform="translate(0,0)" opacity="1"></path><path fill="rgb(0,5,35)" d="M 195.56606724592893 75.77698067242855 C 189.88239179955326 77.95066514148489 182.7828492963839 76.45476934433239 179.70879523992465 72.43580389413667 C 178.90017373658108 71.37862603566845 178.4801365081428 70.38040739116767 178.3398930196172 69.1826072099048 L 178.3398930196172 93.04746107495077 C 178.87304241400196 97.60101609520882 184.52565310736 100.98678813239023 190.96535237402102 100.60979458023526 C 192.6592976353759 100.51062745848155 194.07099198064265 100.21361628590202 195.56606724592893 99.64183453747452 Z" data-z-index="264579.6326794897" class="highcharts-point highcharts-color-1" transform="translate(0,0)" opacity="1"></path><g data-z-index="31416026.53589793" z="0" alpha="45" beta="0" center="190,68.5,117,23.4" stroke="#fed533" stroke-width="1" stroke-linejoin="round" tabindex="-1" role="img" aria-label="WETH, 80." style="outline: none;"><path fill="#fed533" d="M 189.98808511758384 27.134254158569938 C 222.29674231255888 27.129601107553064 248.49341837877438 45.6459043122481 248.49999878662885 68.49157490584649 C 248.50450300704978 84.12919772387603 237.28282786505827 97.44524748701579 217.83085078849112 104.88470657012877 L 195.56617015769822 75.77694131402575 C 201.24981486324916 73.6032166554236 203.36525999194828 68.58306704940347 200.2911490988883 64.56412333625339 C 198.18695231247668 61.81319835658821 194.42060467802324 60.226213838753274 189.99761702351677 60.22685083171399 Z" data-z-index="314160.2653589793" transform="translate(0,0)" opacity="1" class="highcharts-point highcharts-color-0"></path></g><g data-z-index="31416026.53589793" z="0" alpha="45" beta="0" center="190,68.5,117,23.4" stroke="#001e3c" stroke-width="1" stroke-linejoin="round" tabindex="-1" role="img" aria-label="USDC, 60." style="outline: none;"><path fill="#001e3c" d="M 217.83033622964464 104.88490336214272 C 189.41195899776625 115.75332570742441 153.9142464819195 108.27384672166197 138.54397619962333 88.17901947068337 C 134.50086868290552 82.89313017834229 132.40068254071397 77.90203695583831 131.69946509808597 71.91303604952402 L 178.3398930196172 69.1826072099048 C 178.87304241400196 73.73616223016285 184.52565310736 77.12193426734426 190.96535237402102 76.74494071518929 C 192.6592976353759 76.64577359343558 194.07099198064265 76.34876242085605 195.56606724592893 75.77698067242855 Z" data-z-index="314160.2653589793" transform="translate(0,0)" opacity="1" class="highcharts-point highcharts-color-1"></path></g><g data-z-index="31416026.53589793" z="0" alpha="45" beta="0" center="190,68.5,117,23.4" stroke="#ef2b55" stroke-width="1" stroke-linejoin="round" tabindex="-1" role="img" aria-label="BAL, 30." style="outline: none;"><path fill="#ef2b55" d="M 131.69941683338226 71.91262380231763 C 130.01614645161493 57.53429636735646 137.96689455273733 44.71857934914221 154.06804603674482 35.85689441564644 L 182.81360920734897 61.97137888312929 C 179.59337891054747 63.74371586982844 178.003229290323 66.30685927347129 178.33988336667645 69.18252476046352 Z" data-z-index="314160.2653589793" transform="translate(0,0)" opacity="1" class="highcharts-point highcharts-color-2"></path></g><g data-z-index="31416026.53589793" z="0" alpha="45" beta="0" center="190,68.5,117,23.4" stroke="#3a6eff" stroke-width="1" stroke-linejoin="round" tabindex="-1" role="img" aria-label="DAI, 20." style="outline: none;"><path fill="#3a6eff" d="M 154.06850768176773 35.85664033999552 C 164.79722768522643 29.95193377173954 176.38120000881779 27.138092167870198 189.9766596481149 27.134256592997303 L 189.99533192962298 60.22685131859946 C 187.27624000176357 60.22761843357404 184.95944553704527 60.79038675434791 182.81370153635353 61.9713280679991 Z" data-z-index="314160.2653589793" transform="translate(0,0)" opacity="1" class="highcharts-point highcharts-color-3"></path></g></g><g class="highcharts-markers highcharts-series-0 highcharts-pie-series" data-z-index="0.1" opacity="1" transform="translate(10,10) scale(1 1)" clip-path="none" aria-hidden="true"></g></g><text x="200" text-anchor="middle" class="highcharts-title" data-z-index="4" style="color: rgb(51, 51, 51); font-size: 18px; fill: rgb(51, 51, 51);" y="24" aria-hidden="true"></text><text x="200" text-anchor="middle" class="highcharts-subtitle" data-z-index="4" style="color: rgb(102, 102, 102); fill: rgb(102, 102, 102);" y="24" aria-hidden="true"></text><text x="10" text-anchor="start" class="highcharts-caption" data-z-index="4" style="color: rgb(102, 102, 102); fill: rgb(102, 102, 102);" y="197" aria-hidden="true"></text><g class="highcharts-legend highcharts-no-tooltip" data-z-index="7" transform="translate(68,159)" aria-hidden="true"><rect fill="none" class="highcharts-legend-box" rx="0" ry="0" x="0" y="0" width="264" height="26"></rect><g data-z-index="1"><g><g class="highcharts-legend-item highcharts-pie-series highcharts-color-0" data-z-index="1" transform="translate(8,3)"><text x="21" text-anchor="start" data-z-index="2" y="15" style="color: rgb(51, 51, 51); cursor: pointer; font-size: 12px; font-weight: bold; fill: rgb(51, 51, 51);">WETH</text><rect x="2" y="4" width="12" height="12" fill="#fed533" rx="6" ry="6" class="highcharts-point" data-z-index="3"></rect></g><g class="highcharts-legend-item highcharts-pie-series highcharts-color-1" data-z-index="1" transform="translate(82.3125,3)"><text x="21" y="15" text-anchor="start" data-z-index="2" style="color: rgb(51, 51, 51); cursor: pointer; font-size: 12px; font-weight: bold; fill: rgb(51, 51, 51);">USDC</text><rect x="2" y="4" width="12" height="12" fill="#001e3c" rx="6" ry="6" class="highcharts-point" data-z-index="3"></rect></g><g class="highcharts-legend-item highcharts-pie-series highcharts-color-2" data-z-index="1" transform="translate(153.90625,3)"><text x="21" y="15" text-anchor="start" data-z-index="2" style="color: rgb(51, 51, 51); cursor: pointer; font-size: 12px; font-weight: bold; fill: rgb(51, 51, 51);">BAL</text><rect x="2" y="4" width="12" height="12" fill="#ef2b55" rx="6" ry="6" class="highcharts-point" data-z-index="3"></rect></g><g class="highcharts-legend-item highcharts-pie-series highcharts-color-3" data-z-index="1" transform="translate(216.671875,3)"><text x="21" y="15" text-anchor="start" data-z-index="2" style="color: rgb(51, 51, 51); cursor: pointer; font-size: 12px; font-weight: bold; fill: rgb(51, 51, 51);">DAI</text><rect x="2" y="4" width="12" height="12" fill="#3a6eff" rx="6" ry="6" class="highcharts-point" data-z-index="3"></rect></g></g></g></g><g stroke-linejoin="round" class="highcharts-3d-frame highcharts-3d-frame-top" data-z-index="1000" aria-hidden="true"><path fill="none" d="M 42.291374836200106 8.72899383539702 L 356.8829255556125 8.72899383539702 L 361.42602643334675 67.38583893634821 L 37.72436290121459 67.38583893634821 Z" visibility="hidden"></path><path fill="none" d="M 38.57397356665325 67.38583893634821 L 361.42602643334675 67.38583893634821 L 356.92665300662804 9.293567326039167 L 43.07334699337193 9.293567326039167 Z" visibility="hidden"></path><path fill="none" d="M 42.291374836200106 8.72899383539702 L 37.72436290121459 67.38583893634821 L 38.57397356665325 67.38583893634821 L 43.07334699337193 9.293567326039167 Z" visibility="hidden"></path><path fill="none" d="M 361.42602643334675 67.38583893634821 L 356.8829255556125 8.72899383539702 L 356.92665300662804 9.293567326039167 L 361.42602643334675 67.38583893634821 Z" visibility="hidden"></path><path fill="none" d="M 37.72436290121459 67.38583893634821 L 361.42602643334675 67.38583893634821 L 361.42602643334675 67.38583893634821 L 38.57397356665325 67.38583893634821 Z" visibility="hidden"></path><path fill="none" d="M 356.8829255556125 8.72899383539702 L 42.291374836200106 8.72899383539702 L 43.07334699337193 9.293567326039167 L 356.92665300662804 9.293567326039167 Z" visibility="hidden"></path></g><g stroke-linejoin="round" class="highcharts-3d-frame highcharts-3d-frame-front" data-z-index="1000" aria-hidden="true"><path fill="none" d="M 43.900759886853706 147.55900696878382 L 355.28196660470053 147.55900696878382 L 355.3248060277285 147 L 44.67519397227147 147 Z" visibility="hidden"></path><path fill="none" d="M 361.42602643334675 67.38583893634821 L 37.72436290121459 67.38583893634821 L 38.57397356665325 67.38583893634821 L 361.42602643334675 67.38583893634821 Z" visibility="hidden"></path><path fill="none" d="M 37.72436290121459 67.38583893634821 L 43.900759886853706 147.55900696878382 L 44.67519397227147 147 L 38.57397356665325 67.38583893634821 Z" visibility="hidden"></path><path fill="none" d="M 355.28196660470053 147.55900696878382 L 361.42602643334675 67.38583893634821 L 361.42602643334675 67.38583893634821 L 355.3248060277285 147 Z" visibility="hidden"></path><path fill="none" d="M 361.42602643334675 67.38583893634821 L 38.57397356665325 67.38583893634821 L 44.67519397227147 147 L 355.3248060277285 147 Z" visibility="hidden"></path><path fill="none" d="M 355.28196660470053 147.55900696878382 L 43.900759886853706 147.55900696878382 L 37.72436290121459 67.38583893634821 L 361.42602643334675 67.38583893634821 Z" visibility="hidden"></path></g></svg>